# xmcd
#
# Track frame offsets: 
#        150
#        13718
#        26324
#        39030
#        52911
#        66385
#        77835
#        89442
#        99869
#        113308
#        122278
#        133195
#        142897
#        153975
#        167022
#        181452
#        193470
#        205091
#        219435
#        230235
#        239869
#        255312
#        265967
#        278473
#        293381
#        305456
#        317030
#        331262
#
# Disc length: 4573 seconds
#
# Revision: 0
# Processed by: cddbd v1.5.1PL2 Copyright (c) Steve Scherf et al.
# Submitted via: ExactAudioCopy v0.95b1
#
DISCID=7b11db1c
DTITLE=Merle Haggard - I'm A Lonesome Fugitive and Branded Man
DYEAR=2006
DGENRE=Country
TTITLE0=I'm A Lonesome Fugitive
TTITLE1=All Of Me Belongs To You
TTITLE2=House Of Memories
TTITLE3=Life In Prison
TTITLE4=Whatever Happened To Me
TTITLE5=Drink Up And Be Somebody
TTITLE6=Someone Told My Story
TTITLE7=If You Want To Be My Woman
TTITLE8=Mary's Mine
TTITLE9=Skid Row
TTITLE10=My Rough And Rowdy Ways
TTITLE11=Mixed Up Mess Of A Heart
TTITLE12=Life In Prison (Alternate Take)
TTITLE13=Someone Told My Story (Alternate Take)
TTITLE14=Branded Man
TTITLE15=Loneliness Is Eating Me Alive
TTITLE16=Don't Get Married
TTITLE17=Somewhere Between
TTITLE18=You Don't Have Very Far To Go
TTITLE19=Gone Crazy
TTITLE20=I Threw Away The Rose
TTITLE21=My Hands Are Tied
TTITLE22=Some Of Us Never Learn
TTITLE23=Long Black Limousine
TTITLE24=Go Home
TTITLE25=I Made The Prison Band
TTITLE26=I Threw Away The Rose (Alternate Take)
TTITLE27=Loneliness Is Eating Me Alive (Alternate Take)
EXTD=
EXTT0=
EXTT1=
EXTT2=
EXTT3=
EXTT4=
EXTT5=
EXTT6=
EXTT7=
EXTT8=
EXTT9=
EXTT10=
EXTT11=
EXTT12=
EXTT13=
EXTT14=
EXTT15=
EXTT16=
EXTT17=
EXTT18=
EXTT19=
EXTT20=
EXTT21=
EXTT22=
EXTT23=
EXTT24=
EXTT25=
EXTT26=
EXTT27=
PLAYORDER=
